<svg viewBox="0 0 400 500" xmlns="http://www.w3.org/2000/svg">
  <defs>
    <linearGradient id="bgA" x1="0" y1="0" x2="0" y2="1">
      <stop offset="0%" stop-color="#edf2f7"/>
      <stop offset="100%" stop-color="#d4dfec"/>
    </linearGradient>
    <linearGradient id="silverA" x1="0" y1="0" x2="1" y2="1">
      <stop offset="0%" stop-color="#d4d4d4"/>
      <stop offset="40%" stop-color="#f0f0f0"/>
      <stop offset="60%" stop-color="#c0c0c0"/>
      <stop offset="100%" stop-color="#e8e8e8"/>
    </linearGradient>
    <filter id="shadowA"><feDropShadow dx="0" dy="3" stdDeviation="5" flood-opacity="0.12"/></filter>
  </defs>
  <rect width="400" height="500" fill="url(#bgA)"/>
  
  <g transform="translate(200,230)" filter="url(#shadowA)">
    <ellipse rx="78" ry="78" fill="#2a2a2a" stroke="#1a1a1a" stroke-width="1"/>
    <ellipse rx="56" ry="56" fill="#333"/>
    
    <path d="M-80,-22 Q-84,0 -80,22 Q-64,48 -32,58 Q0,64 32,58 Q64,48 80,22 Q84,0 80,-22 Q64,-48 32,-58 Q0,-64 -32,-58 Q-64,-48 -80,-22Z" 
          fill="url(#silverA)" opacity="0.85" stroke="#b0b0b0" stroke-width="1.5"/>
    
    <!-- Emerald-cut blue topaz -->
    <rect x="-16" y="-52" width="32" height="22" rx="3" fill="#58a8d8" stroke="#c0c0c0" stroke-width="2.5"/>
    <rect x="-12" y="-49" width="24" height="16" rx="1.5" fill="#4090c0" opacity="0.5"/>
    <rect x="-10" y="-50" width="8" height="6" rx="1" fill="rgba(255,255,255,0.4)"/>
    <!-- Ice facet reflections -->
    <line x1="-8" y1="-46" x2="8" y2="-38" stroke="rgba(255,255,255,0.2)" stroke-width="1"/>
    <line x1="4" y1="-48" x2="12" y2="-40" stroke="rgba(255,255,255,0.15)" stroke-width="0.8"/>
  </g>
  
  <text x="200" y="420" text-anchor="middle" font-family="Georgia,serif" font-size="20" fill="#1a1a1a" font-weight="300" letter-spacing="3">THE ARCTIC</text>
  <text x="200" y="448" text-anchor="middle" font-family="Inter,sans-serif" font-size="10" fill="#8a857d" letter-spacing="3">GEMSTONE RING JACKET</text>
  <text x="200" y="475" text-anchor="middle" font-family="Georgia,serif" font-size="13" fill="#b8976a">Sterling Silver · Swiss Blue Topaz</text>
</svg>
